<svg xmlns="http://www.w3.org/2000/svg" version="1.1" xmlns:xlink="http://www.w3.org/1999/xlink" xmlns:svgjs="http://svgjs.dev/svgjs" width="512" height="512"><svg width="512" height="512" viewBox="0 0 512 512" fill="none" xmlns="http://www.w3.org/2000/svg">
<path d="M0 256C0 158.687 20.4522 87.04 53.76 53.76C87.0678 20.48 158.753 0 256 0C353.355 0 424.96 20.4172 458.24 53.76C491.52 87.1028 512 158.795 512 256C512 353.323 491.556 424.96 458.24 458.24C424.924 491.52 353.237 512 256 512C158.796 512 87.1038 491.52 53.76 458.24C20.4162 424.96 0 353.356 0 256Z" fill="black"></path>
<path d="M378.67 431.245C330 451 303.479 454.5 256 454.5C201.217 454.5 167.556 450.94 118.259 426.86C105.218 420.489 91.7539 411.873 86.0352 408.344C77.0152 402.764 75.4206 389.891 82.1083 381.546C93.2936 367.597 104.336 353.598 115.474 339.477C136.702 312.459 151.006 304.628 166.903 311.505C173.352 314.343 179.826 318.602 186.489 323.105C204.243 335.194 228.922 351.812 261.431 333.775C283.677 321.29 296.581 299.875 307.817 281.225L308.005 280.913C308.801 279.605 309.59 278.297 310.377 276.992C314.153 270.731 317.879 264.554 322.094 258.863C327.377 251.741 350.131 230.141 375.5 246C391.659 255.985 393.959 257.536 408.5 272C414.045 277.531 422.772 289.105 428.759 301.862C441.054 328.057 443.741 346.5 437 375.5C431.64 398.562 413.767 417 378.67 431.245Z" fill="white"></path>
<path d="M160.811 208.572C128.183 208.572 101.672 181.971 101.672 149.286C101.672 116.601 128.183 90 160.811 90C193.416 90 219.951 116.601 219.951 149.286C219.951 181.971 193.416 208.572 160.811 208.572Z" fill="white"></path>
</svg><style>@media (prefers-color-scheme: light) { :root { filter: none; } }
@media (prefers-color-scheme: dark) { :root { filter: none; } }
</style></svg>